<?xml version="1.0" encoding="UTF-8" standalone="no"?>
<!-- Created with Inkscape (http://www.inkscape.org/) -->

<svg
   xmlns:dc="http://purl.org/dc/elements/1.1/"
   xmlns:cc="http://creativecommons.org/ns#"
   xmlns:rdf="http://www.w3.org/1999/02/22-rdf-syntax-ns#"
   xmlns:svg="http://www.w3.org/2000/svg"
   xmlns="http://www.w3.org/2000/svg"
   xmlns:xlink="http://www.w3.org/1999/xlink"
   xmlns:sodipodi="http://sodipodi.sourceforge.net/DTD/sodipodi-0.dtd"
   xmlns:inkscape="http://www.inkscape.org/namespaces/inkscape"
   width="128"
   height="128"
   viewBox="0 0 33.866666 33.866668"
   version="1.1"
   id="svg896"
   inkscape:version="0.92.3 (2405546, 2018-03-11)"
   sodipodi:docname="calyxvpn-launcher.svg">
  <defs
     id="defs890">
    <linearGradient
       inkscape:collect="always"
       id="linearGradient933">
      <stop
         style="stop-color:#ffd900;stop-opacity:1"
         offset="0"
         id="stop929" />
      <stop
         style="stop-color:#fb7300;stop-opacity:0.97969544"
         offset="1"
         id="stop931" />
    </linearGradient>
    <linearGradient
       inkscape:collect="always"
       xlink:href="#linearGradient933"
       id="linearGradient935"
       x1="491.22028"
       y1="257.99271"
       x2="479.66699"
       y2="331"
       gradientUnits="userSpaceOnUse" />
    <linearGradient
       inkscape:collect="always"
       xlink:href="#linearGradient933"
       id="linearGradient943"
       x1="200.33299"
       y1="283.66699"
       x2="175.35431"
       y2="336.77872"
       gradientUnits="userSpaceOnUse" />
  </defs>
  <sodipodi:namedview
     id="base"
     pagecolor="#d7d7d7"
     bordercolor="#666666"
     borderopacity="1.0"
     inkscape:pageopacity="0"
     inkscape:pageshadow="2"
     inkscape:zoom="3.6203867"
     inkscape:cx="98.219577"
     inkscape:cy="46.225057"
     inkscape:document-units="px"
     inkscape:current-layer="layer2"
     showgrid="false"
     units="px"
     inkscape:window-width="1869"
     inkscape:window-height="1025"
     inkscape:window-x="51"
     inkscape:window-y="27"
     inkscape:window-maximized="1">
    <inkscape:grid
       type="xygrid"
       id="grid1471"
       empspacing="4" />
  </sodipodi:namedview>
  <metadata
     id="metadata893">
    <rdf:RDF>
      <cc:Work
         rdf:about="">
        <dc:format>image/svg+xml</dc:format>
        <dc:type
           rdf:resource="http://purl.org/dc/dcmitype/StillImage" />
        <dc:title></dc:title>
      </cc:Work>
    </rdf:RDF>
  </metadata>
  <g
     inkscape:label="Layer 1"
     inkscape:groupmode="layer"
     id="layer1"
     transform="translate(0,-263.13332)">
    <path
       style="fill:#59b000;fill-opacity:1;stroke-width:0.26458335"
       d="M 15.617988,295.66418 C 9.9401302,292.50672 5.6959906,287.52131 4.7342129,282.87951 4.4622971,281.56718 4.4516145,281.24899 4.4519256,274.47112 l 2.394e-4,-6.47461 0.5616386,-0.36177 c 2.3734615,-1.52883 4.8841786,-2.55103 7.4419094,-3.06699 5.221864,-1.05337 10.639669,0.003 15.485448,3.16684 l 0.398232,0.25998 v 6.50684 c 0,6.8044 -0.01093,7.13134 -0.280843,8.43104 -0.956329,4.6043 -4.632206,9.09553 -10.057782,12.28874 -1.576255,0.9277 -1.527525,0.91863 -2.382844,0.44299 z"
       id="path5137"
       inkscape:connector-curvature="0"
       sodipodi:nodetypes="csccssscssscc" />
    <path
       inkscape:connector-curvature="0"
       style="fill:#000000;fill-opacity:0.26395938;stroke-width:0.26458335"
       d="m 16.396917,264.17336 c -1.317958,-4.7e-4 -2.635612,0.13103 -3.941076,0.39437 -2.5577318,0.51596 -5.068528,1.53812 -7.4419895,3.06696 l -0.5615828,0.36177 -4.707e-4,6.47466 c -2.394e-4,6.77787 0.010371,7.096 0.2822554,8.40832 0.9617776,4.64181 5.2059168,9.62724 10.8837756,12.7847 h 1.19e-4 c 0.368953,0.20517 0.569745,0.32326 0.805249,0.31706 v -31.80747 c -0.0088,-2e-5 -0.01755,-4.8e-4 -0.02641,-4.8e-4 z"
       id="path887" />
    <path
       style="fill:#000000;fill-opacity:1;stroke-width:0.26458335"
       d="m 16.170587,270.66055 -1.418519,0.70952 -2.349727,0.48731 -1.196825,1.41851 -0.709517,0.0889 -1.9947111,1.41852 0.1328102,1.8619 -0.930693,0.62063 0.2661338,-1.90634 -7.89099181,3.50211 4.56612931,-0.17725 -0.4433837,1.37408 5.3195724,0.0444 1.9606039,4.19612 0.566372,1.21233 0.459404,8.13336 c 0.975082,0.72944 2.012691,1.40948 3.10782,2.01848 0.855319,0.47564 0.806545,0.48483 2.3828,-0.44287 0.728742,-0.4289 1.421419,-0.88364 2.084629,-1.35651 l -0.0553,-7.64346 1.881539,-1.92133 2.329574,-2.37866 v -2.2164 h 5.541264 l -1.374076,-2.34973 5.496822,0.48782 -1.905828,-4.83174 -7.758182,1.0635 1.197343,1.99522 -1.551842,-0.0444 -0.13281,-0.57619 -0.532268,-0.0889 v -3.10317 l -1.773018,-1.06402 -1.285708,0.0444 -0.620636,0.39894 -0.620633,-0.97513 z"
       id="path914"
       inkscape:connector-curvature="0" />
  </g>
  <g
     inkscape:groupmode="layer"
     id="layer2"
     inkscape:label="fist">
    <polygon
       transform="matrix(0.06649538,0,0,0.06649538,-3.4838166,-6.2180115)"
       style="fill:url(#linearGradient935);fill-opacity:1"
       id="polygon239"
       points="479.667,331 417,330.333 413.667,297.667 454.333,297 439,266.333 523.667,261.667 539.667,297.667 463,294.333 " />
    <polygon
       transform="matrix(0.06649538,0,0,0.06649538,-3.4838166,-6.2180115)"
       style="fill:url(#linearGradient943);fill-opacity:1"
       id="polygon241"
       points="205.667,338.333 133,338.333 137,316.333 103.667,317 153,297 153.667,320.333 189,307.667 210.333,323.667 " />
    <path
       inkscape:connector-curvature="0"
       style="fill:#c4a43f;stroke-width:0.06649537"
       id="path243"
       d="m 17.772556,14.816667 0.398973,2.216491 c 0,0 0.531962,0.265981 1.684526,-0.22163 1.152565,-0.487609 1.595889,-0.620601 1.595889,-0.620601 0,0 0.04436,0.26598 -0.48761,0.620601 -0.531964,0.35462 -1.551603,0.531962 -1.551603,0.531962 0,0 0.443324,0.354687 1.108278,0.08871 0.664953,-0.265982 0.886583,-0.398973 0.886583,-0.398973 0,0 0,0.797944 -0.531964,0.930936 -0.531962,0.132991 -1.86187,-0.177344 -2.526824,-0.132993 -0.664953,0.04436 -0.97522,0.620601 -1.019574,1.063926 -0.04436,0.443324 0.265982,1.728879 0.265982,1.728879 0,0 -0.709305,-0.930935 -0.709305,-1.595889 0,-0.664953 0.132993,-1.108278 0.132993,-1.108278 l -1.108281,-0.132992 -0.487609,-0.753592 -2.249737,0.121885 c 0,0 -0.01115,1.784337 0.831191,2.848197 0.842299,1.063859 1.773233,1.817518 1.773233,1.817518 l 0.6455,11.027056 0.267785,-0.05505 0.260633,-0.117311 0.710945,-0.386379 1.768037,-1.095701 -0.283851,-8.485973 -2.172138,-0.709305 c 0,0 1.773234,0.177343 2.659815,-0.221631 0.886583,-0.398971 3.103139,-2.393832 3.457759,-3.058785 0.35462,-0.664953 -0.08871,-5.496971 -0.08871,-5.496971 0,0 -1.462897,0.664952 -2.925796,1.108278 -1.462898,0.443324 -2.305129,0.48761 -2.305129,0.48761 z"
       sodipodi:nodetypes="ccccccccscccsccccccccccccccscccc" />
    <path
       inkscape:connector-curvature="0"
       style="fill:#c4a43f;stroke-width:0.06649537"
       id="path245"
       d="m 19.723064,9.0980656 c 0,0 0.709306,-0.4433239 1.595888,-0.1773442 0.886584,0.2659831 1.152565,0.4433254 1.152565,0.4433254 v 2.9257972 c 0,0 -0.398971,0.265979 -1.063925,0.576316 -0.664955,0.310332 -1.108214,0.310332 -1.108214,0.310332 0,0 -0.132991,-2.039147 -0.310331,-2.881444 C 19.811701,9.4527521 19.723064,9.0980656 19.723064,9.0980656 Z" />
    <path
       inkscape:connector-curvature="0"
       style="fill:#c4a43f;stroke-width:0.06649537"
       id="path247"
       d="m 16.531286,8.0784922 h 1.684528 c 0,0 0.709373,0.7979442 0.88665,1.7288796 0.177275,0.9309352 0.265981,3.7680932 0.265981,3.7680932 0,0 -0.576248,0.221694 -1.329908,0.310334 -0.753659,0.08864 -1.019638,0.04428 -1.019638,0.04428 0,0 -0.177346,-3.058786 -0.310335,-4.0783602 C 16.575572,8.8321434 16.531286,8.0784851 16.531286,8.0784851 Z" />
    <path
       inkscape:connector-curvature="0"
       style="fill:#c4a43f;stroke-width:0.06649537"
       id="path249"
       d="m 13.206519,9.2754088 1.462898,-0.4433243 c 0,0 1.019573,0.6649534 1.196917,1.9062225 0.177342,1.24127 0.08864,3.147425 0.08864,3.147425 l -2.039213,0.35462 c 0,0 -0.177344,-2.925795 -0.398974,-3.768094 -0.22163,-0.8422962 -0.310269,-1.1968492 -0.310268,-1.1968492 z" />
    <path
       inkscape:connector-curvature="0"
       style="fill:#c4a43f;stroke-width:0.06649537"
       id="path251"
       d="m 10.10338,11.669242 c 0,0 0.310332,-0.620601 0.930935,-0.664953 0.620601,-0.04437 0.975287,0.08864 0.975287,0.08864 l 0.797946,3.103139 c 0,0 -0.08864,0.177343 -0.664955,0.398973 -0.576315,0.22163 -0.930936,0.177343 -0.930936,0.177343 0,0 -0.576314,-1.418545 -0.753591,-1.994861 -0.177277,-0.576317 -0.354684,-1.10828 -0.354686,-1.108279 z" />
    <path
       inkscape:connector-curvature="0"
       style="fill:#796621;stroke-width:0.06649537"
       id="path253"
       d="m 11.477638,10.560964 1.019575,-1.0639261 c 0,0 0.531963,0.4876099 0.620602,1.0639261 0.08864,0.576315 0.04436,2.837158 0.04436,2.837158 0,0 -0.487611,-2.526823 -0.797944,-2.659815 -0.310329,-0.132993 -0.886578,-0.177343 -0.886578,-0.177343 z" />
    <polygon
       transform="matrix(0.06649538,0,0,0.06649538,-3.4838166,-6.2180115)"
       style="fill:#796621"
       id="polygon255"
       points="200.333,283.667 198.333,267 189,275.667 189.667,295 210.333,310.333 " />
    <polygon
       transform="matrix(0.06649538,0,0,0.06649538,-3.4838166,-6.2180115)"
       style="fill:#796621"
       id="polygon257"
       points="295,242.333 293.667,217.667 282.333,222.333 " />
    <polygon
       transform="matrix(0.06649538,0,0,0.06649538,-3.4838166,-6.2180115)"
       style="fill:#796621"
       id="polygon259"
       points="310.333,319 317,353 297,353 289,321 " />
    <polygon
       transform="matrix(0.06649538,0,0,0.06649538,-3.4838166,-6.2180115)"
       style="fill:#796621"
       id="polygon261"
       points="277.667,317 281.667,313 259.667,317 255,340.333 279,338.333 " />
    <path
       inkscape:connector-curvature="0"
       style="fill:#796621;stroke-width:0.06649537"
       id="path263"
       d="m 12.896186,14.905373 c 0,0 -0.310336,0.26598 -0.842297,0.310332 -0.531965,0.04437 -0.753593,0.04428 -0.753593,0.04428 l -0.132993,1.063925 1.418546,0.08864 z" />
    <path
       inkscape:connector-curvature="0"
       style="fill:#796621;stroke-width:0.06649537"
       id="path265"
       d="m 10.679694,17.121862 1.728881,-0.0665 -0.08864,0.731449 -0.487612,0.132993 0.620602,0.132993 c 0,0 0.05539,0.243837 0.182863,0.587352 0.01962,0.05293 -0.326957,0.277086 -0.326957,0.277086 0,0 0.428097,-0.02168 0.448177,0.02473 0.122088,0.281209 0.2846,0.594336 0.493796,0.88399 0.576314,0.797944 1.817516,2.172205 1.817516,2.172205 l -0.797877,0.177342 0.842296,0.265982 0.63607,10.165896 -1.278204,-0.752101 -1.299574,-0.86208 -0.363492,-8.285737 0.620602,-0.354618 -0.753593,-0.265983 z"
       sodipodi:nodetypes="ccccccccccccccccccc" />
  </g>
</svg>
